# xmcd CD database file
#
# Track frame offsets:
#	150
#	13325
#	28592
#	41747
#
# Disc length: 752 seconds
#
# Revision: 0
# Processed by: cddbd v1.5.1PL0 Copyright (c) Steve Scherf et al.
# Submitted via: CDex 1.51
#
DISCID=2d02ee04
DTITLE=SOFT TOUCH - エンドマークタワー
DYEAR=2002
DGENRE=Pop
TTITLE0=エンドマークタワー
TTITLE1=それとおなじ
TTITLE2=書き割りみたいな僕らの世界
TTITLE3=ピンポイント
EXTD=YEAR: 2002
EXTT0=
EXTT1=
EXTT2=
EXTT3=
PLAYORDER=
